Coordinates
version=1
nRows=29
nColumns=24
inDegrees=yes

Units are S.I. units (second, meters, Newtons, ...)
Angles are in degrees.

endheader
time	pelvis_tilt	pelvis_list	pelvis_rotation	pelvis_tx	pelvis_ty	pelvis_tz	hip_flexion_r	hip_adduction_r	hip_rotation_r	knee_angle_r	ankle_angle_r	subtalar_angle_r	mtp_angle_r	hip_flexion_l	hip_adduction_l	hip_rotation_l	knee_angle_l	ankle_angle_l	subtalar_angle_l	mtp_angle_l	lumbar_extension	lumbar_bending	lumbar_rotation
      1.84500000	     10.08637091	     -5.78312898	      7.01083121	      0.27598704	      0.95341961	      0.01552637	     -6.12006107	     10.89899319	    -10.21710048	     -9.85027721	     17.63669701	    -11.93626379	     15.48959752	      8.66691047	     -9.29694316	     -0.35934758	    -63.41766685	     13.28104666	     -7.88976540	     27.60686110	    -16.59725232	      7.93943378	     -0.51458771
      1.85000000	     10.30655964	     -5.45171282	      6.99451059	      0.28164911	      0.95453902	      0.01573505	     -6.99637824	     10.65094692	    -10.15554086	     -9.44005319	     17.71030652	    -11.77321301	     15.49904084	      8.73504028	     -8.89326703	     -0.61623338	    -62.60405878	     13.74484329	     -7.52758830	     27.33061090	    -16.85379730	      7.60592241	     -0.57520159
      1.85500000	     10.51350300	     -5.11088293	      6.97036936	      0.28729122	      0.95560303	      0.01594873	     -7.84970650	     10.38734288	    -10.11045154	     -9.04523581	     17.80126673	    -11.60069586	     15.51118919	      8.79549990	     -8.47450770	     -0.87495352	    -61.72476100	     14.17823359	     -7.19089992	     27.06872497	    -17.09860167	      7.25673416	     -0.62770657
      1.86000000	     10.72679369	     -4.75657269	      6.92842881	      0.29292862	      0.95665976	      0.01616459	     -8.70072419	     10.10159352	    -10.10274289	     -8.67133545	     17.87386850	    -11.37920743	     15.52045421	      8.81383615	     -8.04458893	     -1.16373543	    -60.76246118	     14.59181324	     -6.91682383	     26.77280680	    -17.35430283	      6.88965590	     -0.69155852
      1.86500000	     10.90408141	     -4.40690081	      6.87787071	      0.29854586	      0.95761483	      0.01638068	     -9.49793064	      9.81177125	    -10.10037607	     -8.32210036	     17.97435322	    -11.15631795	     15.52885217	      8.85636976	     -7.61309485	     -1.45207361	    -59.74578717	     14.96975288	     -6.66742710	     26.50186692	    -17.56927414	      6.52270975	     -0.74637964
      1.87000000	     11.09204683	     -4.05014278	      6.81748121	      0.30412386	      0.95853451	      0.01659434	    -10.29832210	      9.51041589	    -10.10866290	     -7.98362518	     18.09854636	    -10.91096357	     15.53555823	      8.86427090	     -7.17142885	     -1.74289162	    -58.66243931	     15.30755636	     -6.46373587	     26.23962585	    -17.80259844	      6.14552639	     -0.78067578
      1.87500000	     11.25888624	     -3.69190664	      6.74212787	      0.30969647	      0.95939069	      0.01681636	    -11.06171359	      9.19870000	    -10.13081003	     -7.67242670	     18.23357365	    -10.64289618	     15.54104377	      8.86798112	     -6.72592511	     -2.04554432	    -57.50737024	     15.60872124	     -6.31752257	     25.99877601	    -18.01254567	      5.76031612	     -0.81691119
      1.88000000	     11.43718921	     -3.33577664	      6.65675120	      0.31524689	      0.96020780	      0.01704049	    -11.82080353	      8.88319263	    -10.20289141	     -7.38717369	     18.34945331	    -10.34483447	     15.53755918	      8.83382732	     -6.28803784	     -2.36718778	    -56.28236722	     15.88036116	     -6.23131134	     25.75348994	    -18.23809024	      5.37491666	     -0.84728006
      1.88500000	     11.58326354	     -2.97994107	      6.55522502	      0.32077984	      0.96093789	      0.01726857	    -12.53462047	      8.55823069	    -10.23184413	     -7.12002440	     18.51886755	    -10.05099227	     15.53794195	      8.81109837	     -5.84291765	     -2.68948284	    -54.99271728	     16.09803234	     -6.19146035	     25.54988460	    -18.42870810	      4.98307697	     -0.86883085
      1.89000000	     11.73992481	     -2.62299665	      6.44132520	      0.32629915	      0.96164075	      0.01749764	    -13.24512259	      8.22538390	    -10.30531808	     -6.87664664	     18.67419038	     -9.72798641	     15.53111140	      8.74528103	     -5.40073658	     -3.03020748	    -53.62376341	     16.27857468	     -6.21007891	     25.36294244	    -18.63374263	      4.58669309	     -0.88035884
      1.89500000	     11.88308979	     -2.27140392	      6.31381537	      0.33180437	      0.96227077	      0.01773810	    -13.92401646	      7.89006423	    -10.38031591	     -6.66157988	     18.85058849	     -9.40101808	     15.52210371	      8.66991658	     -4.96474025	     -3.38142733	    -52.18890144	     16.41106623	     -6.27555062	     25.20839444	    -18.82383708	      4.18963850	     -0.88209437
      1.90000000	     12.03970216	     -1.92320415	      6.18041593	      0.33730163	      0.96286037	      0.01796939	    -14.60692561	      7.55359776	    -10.48063177	     -6.46154703	     19.02956240	     -9.05081625	     15.50595277	      8.55073487	     -4.53431670	     -3.73717474	    -50.68005115	     16.50268625	     -6.38352106	     25.07961195	    -19.02931206	      3.79564068	     -0.87585888
      1.90500000	     12.17998740	     -1.58453457	      6.02322269	      0.34277879	      0.96337672	      0.01822177	    -15.25149565	      7.21485283	    -10.54892018	     -6.29667328	     19.23172228	     -8.70926291	     15.49087034	      8.42221322	     -4.11460882	     -4.11502767	    -49.10297711	     16.54501994	     -6.53875961	     24.98797419	    -19.21794240	      3.40312723	     -0.86053946
      1.91000000	     12.33340449	     -1.24618386	      5.85856942	      0.34825837	      0.96386357	      0.01846500	    -15.89965829	      6.87093800	    -10.64463050	     -6.14860660	     19.43626776	     -8.34792247	     15.47085985	      8.24444277	     -3.69611679	     -4.49942849	    -47.44395904	     16.53963477	     -6.72836784	     24.92809148	    -19.42017750	      3.00899340	     -0.83126372
      1.91500000	     12.51874507	     -0.89630486	      5.72393242	      0.35378615	      0.96433619	      0.01864864	    -16.58938140	      6.52307739	    -10.86104566	     -5.98934322	     19.64268983	     -7.90916850	     15.41490710	      7.99741483	     -3.26527125	     -4.86049378	    -45.70229393	     16.48340978	     -6.90061146	     24.92877628	    -19.64863325	      2.61320365	     -0.83063281
      1.92000000	     12.67604346	     -0.57509313	      5.53033987	      0.35926862	      0.96471745	      0.01890149	    -17.21418743	      6.18040517	    -10.95288544	     -5.88584089	     19.85712554	     -7.54095244	     15.36009739	      7.75012286	     -2.86794613	     -5.28070452	    -43.89007496	     16.37435140	     -7.14463224	     24.96848169	    -19.85221038	      2.22833701	     -0.78082498
      1.92500000	     12.85024695	     -0.25919378	      5.33287342	      0.36475718	      0.96505504	      0.01913922	    -17.84952652	      5.83858067	    -11.05361059	     -5.79509222	     20.09418548	     -7.14774325	     15.30166373	      7.44962788	     -2.47263478	     -5.69484729	    -41.99806798	     16.22711764	     -7.38456605	     25.06227701	    -20.07107301	      1.84876422	     -0.72467415
      1.93000000	     12.97662376	      0.01843774	      5.08605149	      0.37025720	      0.96526676	      0.01944029	    -18.40818085	      5.51355355	    -11.06756384	     -5.74165967	     20.35662366	     -6.82344465	     15.26849950	      7.17319931	     -2.12219705	     -6.18261610	    -40.04757148	     16.05461179	     -7.68246656	     25.14727956	    -20.23138168	      1.48935998	     -0.60459165
      1.93500000	     13.20922340	      0.34442163	      4.90717793	      0.37581825	      0.96557500	      0.01962746	    -19.10761657	      5.16548656	    -11.26624435	     -5.65111588	     20.58667645	     -6.38301726	     15.19022494	      6.72827276	     -1.71654141	     -6.60195693	    -37.98135323	     15.78470498	     -7.85910541	     25.38286484	    -20.50407104	      1.10578273	     -0.61077894
      1.94000000	     13.39877593	      0.62229053	      4.67842245	      0.38136002	      0.96574686	      0.01985612	    -19.72969114	      4.84168659	    -11.35362307	     -5.60646481	     20.84175453	     -6.01783287	     15.10450468	      6.30487489	     -1.35402998	     -7.06290438	    -35.85842105	     15.50001064	     -8.07377540	     25.67412021	    -20.72618654	      0.75537398	     -0.51602434
      1.94500000	     13.58367552	      0.87696973	      4.43598331	      0.38691904	      0.96584728	      0.02009167	    -20.33504364	      4.53235681	    -11.42053389	     -5.57727002	     21.09139383	     -5.66914193	     15.02013638	      5.85851456	     -1.01473785	     -7.55739230	    -33.67691043	     15.16381426	     -8.25975462	     26.00968209	    -20.93808073	      0.42432185	     -0.41720272
      1.95000000	     13.75658974	      1.09853919	      4.17403388	      0.39251328	      0.96585995	      0.02032977	    -20.91718627	      4.24409736	    -11.45147823	     -5.56151202	     21.31864986	     -5.35190808	     14.94272271	      5.39821990	     -0.70833012	     -8.10552341	    -31.44211112	     14.81004970	     -8.41084657	     26.36581496	    -21.12850697	      0.12270896	     -0.30637754
      1.95500000	     13.95395088	      1.31597011	      3.93652661	      0.39810699	      0.96583645	      0.02053497	    -21.52061234	      3.96805170	    -11.51167331	     -5.55501925	     21.58862400	     -5.03379139	     14.85351222	      4.88008502	     -0.39136081	     -8.59727889	    -29.13409935	     14.37771416	     -8.46424953	     26.85159247	    -21.34425748	     -0.17184706	     -0.20055401
      1.96000000	     14.13032805	      1.49004568	      3.67348439	      0.40373551	      0.96570604	      0.02074928	    -22.09333587	      3.72044593	    -11.51187145	     -5.55585760	     21.82515189	     -4.75993952	     14.77380503	      4.36654735	     -0.11628197	     -9.15830382	    -26.79487463	     13.92947506	     -8.47147641	     27.34366327	    -21.52811654	     -0.42809369	     -0.06662910
      1.96500000	     14.30890957	      1.64493856	      3.41680068	      0.40938342	      0.96550372	      0.02092629	    -22.65625932	      3.48802714	    -11.52275824	     -5.58119692	     22.09092736	     -4.48395617	     14.68397742	      3.82585864	      0.15303290	     -9.71463122	    -24.40491983	     13.43918665	     -8.40274259	     27.97691891	    -21.70986517	     -0.66220564	      0.06329670
      1.97000000	     14.46629131	      1.75925084	      3.15495520	      0.41505754	      0.96520247	      0.02108765	    -23.19467874	      3.28990923	    -11.48835889	     -5.60132135	     22.32064759	     -4.25958400	     14.60159970	      3.29609464	      0.39075292	    -10.30820462	    -21.99455821	     12.92310848	     -8.25671964	     28.61909547	    -21.86139844	     -0.85592449	      0.20932290
      1.97500000	     14.61771102	      1.84012718	      2.89524067	      0.42075278	      0.96481216	      0.02122466	    -23.72093818	      3.12072724	    -11.43491084	     -5.62880199	     22.54546077	     -4.04849415	     14.53330889	      2.76321295	      0.60607198	    -10.91631859	    -19.57156141	     12.38466110	     -8.01739566	     29.26113911	    -22.00079335	     -1.01453955	      0.36390288
      1.98000000	     14.76588493	      1.88652516	      2.63023781	      0.42647854	      0.96435402	      0.02132988	    -24.23471213	      2.97655178	    -11.38352131	     -5.67288964	     22.73869901	     -3.85034436	     14.47391781	      2.21878280	      0.80078780	    -11.55976844	    -17.12836416	     11.79852463	     -7.69495681	     29.91015668	    -22.13117515	     -1.13699783	      0.53936159
      1.98500000	     14.90889557	      1.92050306	      2.38069825	      0.43223177	      0.96379258	      0.02137755	    -24.74972550	      2.84564592	    -11.30439305	     -5.70884548	     23.00278017	     -3.65853179	     14.42111484	      1.66550458	      1.00560540	    -12.15222853	    -14.67165530	     11.21066522	     -7.29557025	     30.70355643	    -22.25297499	     -1.24143534	      0.69657273
